<?xml version="1.0" standalone="no"?><svg xmlns="http://www.w3.org/2000/svg" viewBox="0 0 1440 320"><path fill="#FB8C00" fill-opacity="0.9" d="M0,128L40,122.7C80,117,160,107,240,112C320,117,400,139,480,176C560,213,640,267,720,245.3C800,224,880,128,960,128C1040,128,1120,224,1200,266.7C1280,309,1360,299,1400,293.3L1440,288L1440,320L1400,320C1360,320,1280,320,1200,320C1120,320,1040,320,960,320C880,320,800,320,720,320C640,320,560,320,480,320C400,320,320,320,240,320C160,320,80,320,40,320L0,320Z"></path></svg>